<?xml version="1.0" encoding="UTF-8" standalone="no"?>
<!-- Created with Inkscape (http://www.inkscape.org/) -->

<svg
   width="48"
   height="48"
   viewBox="0 0 12.7 12.7"
   version="1.1"
   id="svg1"
   inkscape:version="1.3.2 (091e20e, 2023-11-25, custom)"
   sodipodi:docname="ContentBrowser-CameraRigProxy.svg"
   xmlns:inkscape="http://www.inkscape.org/namespaces/inkscape"
   xmlns:sodipodi="http://sodipodi.sourceforge.net/DTD/sodipodi-0.dtd"
   xmlns="http://www.w3.org/2000/svg"
   xmlns:svg="http://www.w3.org/2000/svg">
  <sodipodi:namedview
     id="namedview1"
     pagecolor="#a4a4a4"
     bordercolor="#000000"
     borderopacity="0.25"
     inkscape:showpageshadow="2"
     inkscape:pageopacity="0.0"
     inkscape:pagecheckerboard="0"
     inkscape:deskcolor="#d1d1d1"
     inkscape:document-units="mm"
     inkscape:zoom="11.903123"
     inkscape:cx="29.614077"
     inkscape:cy="32.638493"
     inkscape:window-width="2560"
     inkscape:window-height="1377"
     inkscape:window-x="2552"
     inkscape:window-y="-8"
     inkscape:window-maximized="1"
     inkscape:current-layer="svg1"
     showguides="true">
    <sodipodi:guide
       position="0,11.1125"
       orientation="0,1"
       id="guide1"
       inkscape:locked="false"
       inkscape:label=""
       inkscape:color="rgb(0,134,229)" />
    <sodipodi:guide
       position="264583.33,12.7"
       orientation="-1,0"
       id="guide2"
       inkscape:locked="false"
       inkscape:label=""
       inkscape:color="rgb(0,134,229)" />
    <sodipodi:guide
       position="12.7,1.5875"
       orientation="0,1"
       id="guide3"
       inkscape:locked="false"
       inkscape:label=""
       inkscape:color="rgb(0,134,229)" />
    <sodipodi:guide
       position="1.5875,12.7"
       orientation="-1,0"
       id="guide4"
       inkscape:locked="false"
       inkscape:label=""
       inkscape:color="rgb(0,134,229)" />
    <sodipodi:guide
       position="11.1125,12.7"
       orientation="-1,0"
       id="guide5"
       inkscape:locked="false"
       inkscape:label=""
       inkscape:color="rgb(0,134,229)" />
  </sodipodi:namedview>
  <defs
     id="defs1" />
  <g
     inkscape:label="Layer 1"
     inkscape:groupmode="layer"
     id="layer1"
     style="display:inline"
     transform="matrix(0.68652126,0,0,0.68652126,4.2170922,5.9708565)">
    <path
       d="M 7.2125272,4.6579609 10.043983,2.5343694 V 7.4894163 L 7.2125272,5.3658248 Z"
       fill="#ffffff"
       id="path3"
       style="stroke-width:0.707862" />
    <path
       d="M 6.5046632,2.5343694 H 1.5496164 c -0.18774,0 -0.367728,0.074545 -0.5004807,0.2072973 -0.13275292,0.1327475 -0.20738292,0.312827 -0.20738292,0.5005667 v 3.5393189 c 0,0.1877269 0.0746299,0.3678061 0.20738292,0.5006015 0.1327529,0.1327235 0.3127412,0.2072625 0.5004807,0.2072625 h 4.9550468 c 0.1877241,0 0.3677355,-0.074538 0.5004591,-0.2072625 C 7.1379182,7.149358 7.2125272,6.9692777 7.2125272,6.7815523 V 3.2422334 c 0,-0.1877402 -0.074607,-0.3678204 -0.2074049,-0.5005659 C 6.8723998,2.6089146 6.6923887,2.5343701 6.5046632,2.5343694 Z M 2.9653444,7.1354842 V 2.8883013 l 3.3977462,2.1235914 z"
       fill="#ffffff"
       id="path4"
       style="stroke-width:0.707862" />
  </g>
  <g
     opacity="0.5"
     id="g2"
     transform="matrix(0.39403221,0,0,0.39403221,1.5875,4.2348205)"
     style="display:inline">
    <path
       d="M 9,3 13,0 V 7 L 9,4 Z"
       fill="#ffffff"
       id="path1-2" />
    <path
       d="M 8,0 H 1 C 0.734784,0 0.480505,0.10531 0.292969,0.292847 0.105432,0.480383 0,0.734784 0,1 V 6 C 0,6.26522 0.105432,6.51962 0.292969,6.70715 0.480505,6.89469 0.734784,7 1,7 H 8 C 8.26522,7 8.51949,6.89469 8.70703,6.70715 8.89457,6.51962 9,6.26522 9,6 V 1 C 9,0.734784 8.89457,0.480383 8.70703,0.292847 8.51949,0.10531 8.26522,0 8,0 Z M 3,6.5 v -6 l 4.80005,3 z"
       fill="#ffffff"
       id="path2-8" />
  </g>
  <g
     inkscape:groupmode="layer"
     id="layer2"
     inkscape:label="Layer 2"
     transform="matrix(1.7206526,0,0,1.7206526,-7.5441601,-0.54992882)">
    <path
       fill-rule="evenodd"
       clip-rule="evenodd"
       d="M 10.277922,2.975209 9.5398214,3.8609293 8.7806324,2.975209 h 0.5061258 c 0,-0.8224545 0.021088,-1.4762004 -0.9068088,-1.6870861 1.2020494,0 1.3918466,0.8224545 1.3918466,1.6870861 z"
       fill="#ffffff"
       id="path1"
       style="stroke-width:0.210886" />
    <path
       opacity="0.5"
       fill-rule="evenodd"
       clip-rule="evenodd"
       d="m 8.4432468,1.2881229 c 0.042177,0 0.3585058,0.1265521 0.4639486,0.2319954 C 8.633044,1.4568519 8.2112723,1.3724875 7.9792981,1.5622854 7.7473237,1.7520826 7.6207922,1.9840676 7.5997037,2.363662 c 0,0 -0.063265,-0.5483241 0.2741515,-0.8646527 C 8.0003867,1.3724772 8.2112723,1.288123 8.4432468,1.2881229 Z"
       fill="#ffffff"
       id="path2"
       style="stroke-width:0.210886" />
  </g>
</svg>
