<svg width="64" height="64" viewBox="0 0 64 64" fill="none" xmlns="http://www.w3.org/2000/svg">
<path fill-rule="evenodd" clip-rule="evenodd" d="M24.5 6C22.567 6 21 7.567 21 9.5V17H11.9834C9.18306 17 7 19.4132 7 22.2368V48.7632C7 51.5868 9.18306 54 11.9834 54H53.0126C55.8828 54 58.1067 51.6134 57.996 48.743V48.1526C58.0013 48.0171 58.0013 47.8805 57.996 47.743V22.2368C57.996 19.4132 55.813 17 53.0126 17H44V9.5C44 7.567 42.433 6 40.5 6H24.5ZM38 12V17H27V12H38Z" fill="#242424"/>
<g filter="url(#filter0_i_21988_19811)">
<path d="M24.5 7C23.1193 7 22 8.11929 22 9.5V19H26V12C26 11.4477 26.4477 11 27 11H38C38.5523 11 39 11.4477 39 12V19H43V9.5C43 8.11929 41.8807 7 40.5 7H24.5Z" fill="url(#paint0_linear_21988_19811)"/>
</g>
<path fill-rule="evenodd" clip-rule="evenodd" d="M53.0126 52H11.9834C9.79254 52 8 50.0935 8 47.7632V22.2368C8 19.9065 9.79254 18 11.9834 18H53.0126C55.2035 18 56.996 19.9065 56.996 22.2368V47.7632C57.0956 50.0935 55.3031 52 53.0126 52Z" fill="white"/>
<path fill-rule="evenodd" clip-rule="evenodd" d="M53.0126 53H11.9834C9.79254 53 8 51.0935 8 48.7632V23.2368C8 20.9065 9.79254 19 11.9834 19H53.0126C55.2035 19 56.996 20.9065 56.996 23.2368V48.7632C57.0956 51.0935 55.3031 53 53.0126 53Z" fill="url(#paint1_linear_21988_19811)"/>
<rect x="11" y="24" width="43" height="26" rx="2.5" fill="url(#paint2_linear_21988_19811)"/>
<path d="M11 24.5C11 23.1193 12.1193 22 13.5 22H51.5C52.8807 22 54 23.1193 54 24.5V47.5C54 48.8807 52.8807 50 51.5 50H13.5C12.1193 50 11 48.8807 11 47.5V24.5Z" fill="url(#paint3_linear_21988_19811)"/>
<path fill-rule="evenodd" clip-rule="evenodd" d="M51.5 23H13.5C12.6716 23 12 23.6716 12 24.5V47.5C12 48.3284 12.6716 49 13.5 49H51.5C52.3284 49 53 48.3284 53 47.5V24.5C53 23.6716 52.3284 23 51.5 23ZM13.5 22C12.1193 22 11 23.1193 11 24.5V47.5C11 48.8807 12.1193 50 13.5 50H51.5C52.8807 50 54 48.8807 54 47.5V24.5C54 23.1193 52.8807 22 51.5 22H13.5Z" fill="#242424"/>
<path fill-rule="evenodd" clip-rule="evenodd" d="M18.2527 27.2473C18.1219 27.3759 18 27.6012 18 27.9847V44.0153C18 44.3988 18.1219 44.6241 18.2527 44.7527C18.386 44.8839 18.6159 45 18.9853 45H35.0147C35.6287 45 36 44.6182 36 44.0153V27.9847C36 27.6012 35.8781 27.3759 35.7473 27.2473C35.614 27.1161 35.3841 27 35.0147 27H18.9853C18.6159 27 18.386 27.1161 18.2527 27.2473ZM16.8503 25.8214C17.4154 25.2655 18.1782 25 18.9853 25H35.0147C35.8218 25 36.5846 25.2655 37.1497 25.8214C37.7175 26.3798 38 27.1469 38 27.9847V32.7331L45.8768 26.4501C46.5339 25.8889 47.3724 25.8831 48.0074 26.2648C48.6155 26.6304 49 27.3163 49 28.0808V42.9532C49 43.7323 48.6015 44.4028 47.9859 44.7523C47.3652 45.1047 46.5624 45.1002 45.9149 44.6137L45.9052 44.6064L38 38.3614V44.0153C38 45.7024 36.7536 47 35.0147 47H18.9853C18.1782 47 17.4154 46.7345 16.8503 46.1786C16.2825 45.6202 16 44.8531 16 44.0153V27.9847C16 27.1469 16.2825 26.3798 16.8503 25.8214ZM47 28.1125L39.0104 34.4855L39.0001 34.4906C39 34.4934 39 34.4963 39 34.4994V36.5346C39 36.5681 39.0035 36.5924 39.0071 36.6082L47 42.9225V28.1125Z" fill="#242424"/>
<path d="M35.084 45.3388H18.9929C17.8119 45.3388 17 44.6007 17 43.4197V27.9191C17 26.7381 17.8119 26 18.9929 26H35.084C36.265 26 37.0769 26.7381 37.0769 27.9191V43.4197C37.0769 44.5269 36.265 45.3388 35.084 45.3388Z" fill="white"/>
<path d="M38.332 34.1846V36.1487C38.332 36.5264 38.4831 36.8286 38.7097 36.9797L46.566 43.174C47.1703 43.6273 48.0013 43.174 48.0013 42.3431V27.9903C48.0013 27.1593 47.1703 26.6305 46.566 27.1593L38.7853 33.3537C38.4831 33.5048 38.332 33.8069 38.332 34.1846Z" fill="white"/>
<path d="M35.084 46.0034H18.9929C17.8119 46.0034 17 45.2652 17 44.0842V28.5837C17 27.4027 17.8119 26.6646 18.9929 26.6646H35.084C36.265 26.6646 37.0769 27.4027 37.0769 28.5837V44.0842C37.0769 45.1914 36.265 46.0034 35.084 46.0034Z" fill="url(#paint4_linear_21988_19811)"/>
<path d="M38.332 35.0909V37.055C38.332 37.4327 38.4831 37.7348 38.7097 37.8859L46.566 44.0803C47.1703 44.5335 48.0013 44.0803 48.0013 43.2493V28.8965C48.0013 28.0656 47.1703 27.5368 46.566 28.0656L38.7853 34.1844C38.4831 34.411 38.332 34.7132 38.332 35.0909Z" fill="url(#paint5_linear_21988_19811)"/>
<path d="M47.9976 27.9932H47.5547V42.3866H47.9976V27.9932Z" fill="url(#paint6_linear_21988_19811)"/>
<path d="M37.0796 41.9434H36.6367V26.9595L37.0796 27.6238V41.9434Z" fill="url(#paint7_linear_21988_19811)"/>
<defs>
<filter id="filter0_i_21988_19811" x="22" y="7" width="21" height="13" filterUnits="userSpaceOnUse" color-interpolation-filters="sRGB">
<feFlood flood-opacity="0" result="BackgroundImageFix"/>
<feBlend mode="normal" in="SourceGraphic" in2="BackgroundImageFix" result="shape"/>
<feColorMatrix in="SourceAlpha" type="matrix" values="0 0 0 0 0 0 0 0 0 0 0 0 0 0 0 0 0 0 127 0" result="hardAlpha"/>
<feOffset dy="1"/>
<feGaussianBlur stdDeviation="0.5"/>
<feComposite in2="hardAlpha" operator="arithmetic" k2="-1" k3="1"/>
<feColorMatrix type="matrix" values="0 0 0 0 0.7125 0 0 0 0 0.7125 0 0 0 0 0.7125 0 0 0 0.3 0"/>
<feBlend mode="normal" in2="shape" result="effect1_innerShadow_21988_19811"/>
</filter>
<linearGradient id="paint0_linear_21988_19811" x1="32.5284" y1="8.12904" x2="32.4983" y2="18.8" gradientUnits="userSpaceOnUse">
<stop stop-color="#808080"/>
<stop offset="1" stop-color="#333333"/>
</linearGradient>
<linearGradient id="paint1_linear_21988_19811" x1="32.5317" y1="20.2343" x2="32.5317" y2="54.227" gradientUnits="userSpaceOnUse">
<stop stop-color="#CCCCCC"/>
<stop offset="0.7817" stop-color="#666666"/>
<stop offset="1" stop-color="#808080"/>
</linearGradient>
<linearGradient id="paint2_linear_21988_19811" x1="32.4563" y1="24.6387" x2="32.4563" y2="49.1607" gradientUnits="userSpaceOnUse">
<stop stop-color="#4D4D4D"/>
<stop offset="1" stop-color="#1A1A1A"/>
</linearGradient>
<linearGradient id="paint3_linear_21988_19811" x1="32.553" y1="22.3285" x2="32.4487" y2="49.4908" gradientUnits="userSpaceOnUse">
<stop stop-color="#808080"/>
<stop offset="1" stop-color="#333333"/>
</linearGradient>
<linearGradient id="paint4_linear_21988_19811" x1="27.0947" y1="26.2685" x2="26.9817" y2="46.4964" gradientUnits="userSpaceOnUse">
<stop offset="0.328125" stop-color="#D9D9D9"/>
<stop offset="1" stop-color="#868686"/>
</linearGradient>
<linearGradient id="paint5_linear_21988_19811" x1="50.8053" y1="36.0458" x2="27.402" y2="36.1134" gradientUnits="userSpaceOnUse">
<stop offset="0.3583" stop-color="#D9D9D9"/>
<stop offset="1" stop-color="#666666"/>
</linearGradient>
<linearGradient id="paint6_linear_21988_19811" x1="47.7643" y1="27.9776" x2="47.788" y2="42.4541" gradientUnits="userSpaceOnUse">
<stop stop-color="white"/>
<stop offset="1" stop-color="white" stop-opacity="0"/>
</linearGradient>
<linearGradient id="paint7_linear_21988_19811" x1="36.8452" y1="26.8863" x2="36.87" y2="41.9795" gradientUnits="userSpaceOnUse">
<stop stop-color="white"/>
<stop offset="1" stop-color="white" stop-opacity="0"/>
</linearGradient>
</defs>
</svg>
