<svg width="16" height="16" viewBox="0 0 16 16" fill="none" xmlns="http://www.w3.org/2000/svg">
<path d="M8.5 6H3.5C3.22386 6 3 6.22386 3 6.5V11.5C3 11.7761 3.22386 12 3.5 12H8.5C8.77614 12 9 11.7761 9 11.5V6.5C9 6.22386 8.77614 6 8.5 6Z" fill="white"/>
<path d="M9.87891 8.56012V9.44012L12.9989 11.6301V6.37012L9.87891 8.56012Z" fill="white"/>
<rect x="1.5" y="4.5" width="13" height="9" rx="1" stroke="white"/>
<path d="M10.5 3.5V2.25C10.5 1.83579 10.1642 1.5 9.75 1.5H6.25C5.83579 1.5 5.5 1.83579 5.5 2.25V3.5" stroke="white"/>
</svg>
